<?xml version="1.0" encoding="UTF-8"?>
<svg version="1.1" xmlns="http://www.w3.org/2000/svg" width="952" height="952">
<path d="M0 0 C314.16 0 628.32 0 952 0 C952 314.16 952 628.32 952 952 C637.84 952 323.68 952 0 952 C0 637.84 0 323.68 0 0 Z " fill="#81BFFC" transform="translate(0,0)"/>
<path d="M0 0 C9.77048998 8.25063598 13.97322811 17.78854574 15.75 30.25 C16.28331671 36.73756146 16.07236894 42.76335019 14.8046875 49.140625 C13.53819039 55.83472434 13.11738203 62.56303088 12.66015625 69.34887695 C11.49447579 86.37029938 9.72519081 103.30512663 7.75 120.25 C7.62443726 121.33344696 7.49887451 122.41689392 7.36950684 123.53317261 C6.99996266 126.71005361 6.62611634 129.88639079 6.25 133.0625 C6.14375305 133.96585587 6.0375061 134.86921173 5.92803955 135.79994202 C4.66634569 146.30025497 3.19336391 156.77344355 1.75 167.25 C19.69296518 167.18920797 37.63577647 167.11152922 55.57858086 167.01428509 C63.91158653 166.96950761 72.24455118 166.93005249 80.57763672 166.90356445 C87.84910116 166.88043696 95.12043379 166.84687771 102.39179337 166.80129844 C106.23435802 166.77756286 110.07679375 166.75870648 113.91942978 166.75238609 C145.18681987 167.39916517 145.18681987 167.39916517 173.75 156.25 C174.78244224 154.94162666 175.79322321 153.61468163 176.75 152.25 C177.41 152.25 178.07 152.25 178.75 152.25 C178.94335938 151.65832031 179.13671875 151.06664062 179.3359375 150.45703125 C179.72652344 149.27173828 179.72652344 149.27173828 180.125 148.0625 C180.50785156 146.89654297 180.50785156 146.89654297 180.8984375 145.70703125 C181.45311318 144.1066138 182.05510878 142.52158565 182.70950317 140.95928955 C186.59954412 130.83023676 187.57655896 119.84853837 188.7578125 109.140625 C188.92971887 107.63693544 189.10241251 106.13333569 189.27584839 104.62982178 C189.72552303 100.71838003 190.16715556 96.80608017 190.60620117 92.89343262 C191.31407875 86.59036467 192.03086918 80.28833251 192.75448227 73.98705292 C193.00492231 71.79096879 193.249662 69.59430035 193.493927 67.39752197 C193.6456387 66.06479485 193.7975539 64.73209086 193.94970703 63.39941406 C194.08055695 62.23283264 194.21140686 61.06625122 194.34622192 59.86431885 C194.75 57.25 194.75 57.25 195.75 56.25 C195.89318011 54.82815762 195.97852691 53.40040684 196.0390625 51.97265625 C196.78074801 38.87385541 199.16294092 28.11548264 204.75 16.25 C205.20632813 15.21230469 205.66265625 14.17460937 206.1328125 13.10546875 C208.03839502 9.74078078 210.41971728 7.21171639 213.1875 4.5625 C213.90389648 3.85383789 213.90389648 3.85383789 214.63476562 3.13085938 C219.43154942 -1.56064522 223.53186572 -4.19270142 229.75 -6.75 C230.82894531 -7.27980469 231.90789062 -7.80960937 233.01953125 -8.35546875 C249.58710844 -15.75333949 270.50125695 -14.91441656 287.75 -9.75 C292.84411152 -7.75496773 296.9313981 -5.66676647 300.75 -1.75 C303.00686378 0.0121527 305.29763939 1.72299135 307.59375 3.43359375 C313.92114914 8.76373977 316.99700257 17.28362507 318.01647949 25.3614502 C318.37840072 30.53431134 318.2557992 35.69557523 318.125 40.875 C318.10843718 42.41534213 318.09410374 43.95570989 318.08203125 45.49609375 C317.94927945 56.57493021 317.94927945 56.57493021 316.75 61.25 C316.5664489 63.64999717 316.42182885 66.05307099 316.30078125 68.45703125 C315.82376553 76.99200718 314.92248441 85.44848807 313.9375 93.9375 C313.57909741 97.0753358 313.22324636 100.21346001 312.8671875 103.3515625 C312.73021202 104.55338921 312.73021202 104.55338921 312.59046936 105.77949524 C311.91186583 111.75396065 311.26541143 117.73143865 310.6328125 123.7109375 C310.49734764 124.98687523 310.49734764 124.98687523 310.35914612 126.28858948 C310.00622534 129.6143249 309.65343199 132.94005847 309.30673218 136.26644897 C309.06808873 138.55425433 308.82543358 140.84160307 308.58203125 143.12890625 C308.44514893 144.4341626 308.3082666 145.73941895 308.16723633 147.08422852 C307.75 150.25 307.75 150.25 306.75 153.25 C306.56181967 154.59080652 306.41055989 155.9370287 306.28515625 157.28515625 C306.2085376 158.084375 306.13191895 158.88359375 306.05297852 159.70703125 C305.93394165 160.99673828 305.93394165 160.99673828 305.8125 162.3125 C305.63622428 164.14721319 305.45912608 165.98184752 305.28125 167.81640625 C305.19230469 168.73695801 305.10335938 169.65750977 305.01171875 170.60595703 C304.64365592 174.324353 304.23283281 178.03720463 303.8125 181.75 C301.96452644 198.2038628 300.2054594 214.66623023 298.55078125 231.140625 C298.33440357 233.28768028 298.11801346 235.4347343 297.90161133 237.58178711 C297.47705874 241.79577253 297.05699337 246.0101731 296.6394043 250.22485352 C295.54607221 261.14877191 294.29434145 272.03370079 292.83692932 282.91508484 C291.59910713 292.21744096 290.6168607 301.53754745 289.6875 310.875 C289.51612359 312.56952445 289.34448969 314.26402288 289.17260742 315.95849609 C288.18346765 325.74326513 287.21271979 335.5302226 286.34545898 345.32666016 C286.09418639 348.09340652 285.84182054 350.81457342 285.26806641 353.53540039 C284.6418472 356.81670639 284.3522061 360.06604251 284.06640625 363.39453125 C284.00597641 364.08197922 283.94554657 364.76942719 283.88328552 365.47770691 C283.62724201 368.39095013 283.37745754 371.30471919 283.12768555 374.21850586 C279.52817032 415.98718523 279.52817032 415.98718523 267.75 430.25 C267.10417969 431.09175781 266.45835937 431.93351562 265.79296875 432.80078125 C256.88199355 443.69564703 245.1463253 448.87229405 231.75 452.25 C231.14325439 452.4257959 230.53650879 452.6015918 229.91137695 452.78271484 C225.38667891 453.76094506 220.67217593 453.43472476 216.0625 453.4375 C215.01126953 453.44974609 213.96003906 453.46199219 212.87695312 453.47460938 C203.10293437 453.49285583 195.30474304 451.99770429 186.625 447.5 C185.92487793 447.1385791 185.22475586 446.7771582 184.50341797 446.40478516 C176.62883355 442.24305898 171.82900988 437.63065996 166.5625 430.5 C166.14564941 429.93974121 165.72879883 429.37948242 165.29931641 428.80224609 C158.4445763 419.09342648 157.16371461 410.46027166 157.4375 398.6875 C157.44716797 397.40552734 157.45683594 396.12355469 157.46679688 394.80273438 C157.58129699 385.41870301 157.58129699 385.41870301 158.75 384.25 C158.9167821 381.87181077 159.03221842 379.50639386 159.125 377.125 C159.6166459 366.98220271 160.99791091 356.99078302 162.38574219 346.93847656 C162.89891736 343.15088606 163.35610595 339.35726314 163.8125 335.5625 C164.49003798 330.05750393 165.35350966 324.6140934 166.3125 319.15234375 C166.94337228 314.96718211 167.23557755 310.77285127 167.50390625 306.55078125 C167.75 304.25 167.75 304.25 168.75 303.25 C168.87207713 301.64372203 168.92979944 300.03248425 168.9609375 298.421875 C168.98929688 297.39191406 169.01765625 296.36195313 169.046875 295.30078125 C169.09710608 293.17851811 169.14183364 291.05611373 169.1796875 288.93359375 C169.39420517 281.61317826 170.20717903 274.52242471 171.27978516 267.28222656 C171.42072098 266.3143924 171.5616568 265.34655823 171.7068634 264.34939575 C172.05191375 261.98252752 172.39968555 259.61609382 172.75 257.25 C158.11846218 257.33447708 143.48702723 257.42981289 128.85564137 257.53752708 C122.05962609 257.58731442 115.26362087 257.63375611 108.4675293 257.671875 C101.89273139 257.70876262 95.31804485 257.75556422 88.74335289 257.80806351 C86.25154451 257.8264076 83.75971048 257.84158677 81.26786232 257.85334396 C37.90550391 256.91641017 37.90550391 256.91641017 -0.25 274.5625 C-9.99143126 285.65690783 -12.02193084 297.90506468 -13.65625 312.18359375 C-14.34539449 318.18489366 -15.14107162 324.17213828 -15.92364502 330.16183472 C-16.54305987 334.9172013 -17.15156621 339.67397703 -17.76074219 344.43066406 C-18.06491599 346.80516252 -18.37007302 349.17953549 -18.67675781 351.55371094 C-19.06242703 354.55580605 -19.44035001 357.55870021 -19.8125 360.5625 C-19.93375244 361.53791748 -20.05500488 362.51333496 -20.17993164 363.51831055 C-20.90889204 369.63873458 -21.46477369 375.75724771 -21.92578125 381.90234375 C-22.04410128 383.42342809 -22.16250976 384.94450554 -22.28100586 386.46557617 C-22.50913522 389.40611528 -22.71067259 392.34681997 -22.89672852 395.2902832 C-24.08329115 411.93725972 -30.54612379 426.85303018 -42.88671875 438.37890625 C-59.82198857 451.7871612 -79.06138224 455.07298728 -100.25 453.25 C-106.44010653 452.36942244 -111.77288782 450.41496148 -117.3125 447.5625 C-118.35555298 447.02967407 -118.35555298 447.02967407 -119.41967773 446.48608398 C-131.64607507 440.04789072 -139.93237835 429.97273941 -145.25 417.25 C-146.51735505 412.88560598 -146.44171457 408.70298521 -146.4375 404.1875 C-146.43669434 403.27790527 -146.43588867 402.36831055 -146.43505859 401.43115234 C-146.2981021 385.41798409 -145.02501497 369.3477934 -142.6796875 353.5078125 C-142.23102718 350.1061515 -142.00406701 346.7377181 -141.8125 343.3125 C-141.49975917 338.25178476 -140.76977249 333.39664275 -139.75 328.4375 C-138.46686498 322.15500915 -137.8777181 316.03733754 -137.59375 309.63696289 C-136.77005613 291.8101684 -136.77005613 291.8101684 -134.25 284.25 C-134.06435443 281.86067278 -133.92269022 279.46784032 -133.8046875 277.07421875 C-133.38052727 269.39390837 -132.58449593 261.79790831 -131.63613892 254.1651001 C-131.18101478 250.50059821 -130.7406343 246.83433049 -130.30078125 243.16796875 C-130.21171005 242.42712036 -130.12263885 241.68627197 -130.03086853 240.92297363 C-128.9702096 232.02312342 -128.07435612 223.1068068 -127.20166016 214.18676758 C-127.08999512 213.0655249 -126.97833008 211.94428223 -126.86328125 210.7890625 C-126.76829346 209.81146973 -126.67330566 208.83387695 -126.57543945 207.82666016 C-126.28816615 205.55217968 -125.81099998 203.4666477 -125.25 201.25 C-125.06621531 199.73238145 -124.91330258 198.21082577 -124.78515625 196.6875 C-124.66817383 195.36685547 -124.66817383 195.36685547 -124.54882812 194.01953125 C-124.39395158 192.20453168 -124.2402624 190.38943031 -124.08789062 188.57421875 C-123.66154472 183.7838932 -123.08211717 179.08423883 -122.2421875 174.34765625 C-121.16485903 168.14164438 -120.70793342 161.96838788 -120.3125 155.6875 C-119.71858277 147.18393177 -118.86193611 138.84598003 -117.43041992 130.4453125 C-115.02907271 116.25814714 -113.28383197 101.94989193 -112.73388672 87.56933594 C-112.29728512 78.49208412 -110.94461282 69.49578656 -109.70922852 60.49951172 C-108.88166368 54.42192513 -108.15057652 48.39150005 -107.75 42.26953125 C-106.63108531 26.51429603 -99.06350694 12.88964399 -87.6015625 2.08984375 C-62.51593479 -17.53695135 -25.63971615 -19.08520225 0 0 Z " fill="#FDFDFD" transform="translate(388.25,267.75)"/>
<path d="M0 0 C0.33 0 0.66 0 1 0 C1.02684312 2.81256281 1.04676188 5.62487241 1.0625 8.4375 C1.07087891 9.23994141 1.07925781 10.04238281 1.08789062 10.86914062 C1.0965143 12.91295221 1.0522815 14.95683902 1 17 C0.67 17.33 0.34 17.66 0 18 C-0.22571184 19.41120902 -0.39388349 20.83176043 -0.53515625 22.25390625 C-0.62216797 23.10791016 -0.70917969 23.96191406 -0.79882812 24.84179688 C-0.88583984 25.73962891 -0.97285156 26.63746094 -1.0625 27.5625 C-1.15337891 28.46419922 -1.24425781 29.36589844 -1.33789062 30.29492188 C-1.56253923 32.52958434 -1.78305769 34.76457839 -2 37 C-2.33 37 -2.66 37 -3 37 C-2.86186975 32.85387186 -2.71321141 28.70818838 -2.5625 24.5625 C-2.52318359 23.37849609 -2.48386719 22.19449219 -2.44335938 20.97460938 C-2.40146484 19.84990234 -2.35957031 18.72519531 -2.31640625 17.56640625 C-2.27974854 16.52427979 -2.24309082 15.48215332 -2.20532227 14.40844727 C-2 12 -2 12 -1 11 C-0.76636119 9.15108054 -0.58696365 7.29511969 -0.4375 5.4375 C-0.35371094 4.42558594 -0.26992188 3.41367187 -0.18359375 2.37109375 C-0.12300781 1.58863281 -0.06242188 0.80617188 0 0 Z " fill="#BFDDFC" transform="translate(557,554)"/>
</svg>
